<svg width="191.1" height="66.258" viewBox="0 0 191.1 66.258" xmlns="http://www.w3.org/2000/svg"><g id="svgGroup" stroke-linecap="round" fill-rule="evenodd" font-size="9pt" stroke="#e4d9ff" stroke-width="0.25mm" fill="#d90368" style="stroke:#e4d9ff;stroke-width:0.25mm;fill:#d90368"><path d="M 0.1 51.9 L 0 51.1 A 0.4 0.4 0 0 1 0.057 50.906 Q 0.185 50.677 0.6 50.4 A 4.771 4.771 0 0 1 0.998 50.229 Q 2.075 49.813 5 49 L 4.9 48.3 A 0.741 0.741 0 0 1 4.898 48.248 Q 4.898 46.863 9.825 43.014 A 74.203 74.203 0 0 1 10.1 42.8 Q 12.7 40.8 15.45 38.85 Q 18.2 36.9 21 35.2 A 89.01 89.01 0 0 1 22.716 34.087 Q 23.489 33.597 24.36 33.063 A 178.81 178.81 0 0 1 26.2 31.95 Q 29.3 30.1 32.2 28.45 A 6075.196 6075.196 0 0 0 33.556 27.679 Q 35.404 26.627 36.449 26.03 A 843.679 843.679 0 0 0 36.5 26 A 3255.568 3255.568 0 0 0 42.127 22.805 Q 58.461 13.506 60.353 12.123 A 0.805 0.805 0 0 0 60.6 11.9 A 7.353 7.353 0 0 0 58.037 10.08 Q 54.145 8.3 46.2 8.3 Q 44.6 8.3 41.4 8.55 A 213.89 213.89 0 0 0 39.694 8.691 Q 36.975 8.925 33.3 9.3 Q 28.4 9.8 25.55 10.05 A 164.423 164.423 0 0 1 24.396 10.148 Q 22.947 10.265 22.195 10.292 A 11.083 11.083 0 0 1 21.8 10.3 Q 19.154 10.3 18.216 9.301 A 1.964 1.964 0 0 1 17.7 7.9 A 1.997 1.997 0 0 1 18.317 6.45 A 2.936 2.936 0 0 1 18.6 6.2 Q 19.365 6.813 19.896 6.956 A 1.167 1.167 0 0 0 20.2 7 A 2.909 2.909 0 0 0 20.341 6.996 Q 20.975 6.963 23.6 6.7 Q 25.897 6.471 29.718 6.007 A 722.623 722.623 0 0 0 32.2 5.7 A 210.272 210.272 0 0 1 37.367 5.116 Q 39.816 4.871 42.009 4.72 A 126.25 126.25 0 0 1 42.3 4.7 A 155.88 155.88 0 0 1 45.52 4.518 Q 47.277 4.437 48.83 4.412 A 84.596 84.596 0 0 1 50.2 4.4 A 15.94 15.94 0 0 1 54.984 5.065 Q 60.95 6.939 62.5 14.1 A 2.801 2.801 0 0 1 63.1 15.037 Q 63.445 15.884 63.493 17.179 A 11.556 11.556 0 0 1 63.5 17.6 A 0.412 0.412 0 0 1 63.317 17.848 Q 62.525 18.513 58.3 20.3 L 52 23 Q 45.011 26.052 36.811 30.751 A 216.909 216.909 0 0 0 36.55 30.9 Q 28.2 35.7 18.6 41.6 L 7.9 48.1 Q 24.563 45.279 37.388 44.353 A 162.009 162.009 0 0 1 49 43.9 Q 54.721 43.9 58.881 45.272 A 18.94 18.94 0 0 1 61.7 46.45 A 12.067 12.067 0 0 1 64.062 48.025 A 6.869 6.869 0 0 1 66.6 53.4 A 11.959 11.959 0 0 1 62.91 62.049 A 20.046 20.046 0 0 1 59.3 64.9 Q 57.1 66.2 56.45 66.25 A 2.575 2.575 0 0 1 56.371 66.255 Q 55.979 66.273 55.856 66.147 A 0.201 0.201 0 0 1 55.8 66 A 0.451 0.451 0 0 0 55.852 65.94 Q 55.9 65.87 55.9 65.8 Q 61.916 60.414 63.724 56.348 A 8.041 8.041 0 0 0 64.5 53.1 A 3.69 3.69 0 0 0 62.492 49.949 Q 59.14 47.828 50.192 47.405 A 102.046 102.046 0 0 0 45.4 47.3 Q 36.3 47.3 25.5 48.8 Q 20.2 49.5 15.85 50.3 Q 11.5 51.1 8.2 51.9 Q 1.751 53.587 1.7 54.289 A 0.154 0.154 0 0 0 1.7 54.3 A 2.227 2.227 0 0 1 1.268 54.212 Q 0.734 54.041 0.55 53.6 A 4.809 4.809 0 0 1 0.399 53.177 Q 0.238 52.657 0.1 51.9 Z M 112.6 25.1 L 110.6 24 Q 107.8 24 102.489 30.852 A 86.894 86.894 0 0 0 100.1 34.1 A 98.838 98.838 0 0 0 97.372 38.193 Q 93.645 44.13 93.169 47.325 A 5.968 5.968 0 0 0 93.1 48.2 A 4.854 4.854 0 0 0 93.123 48.691 Q 93.226 49.7 93.8 49.7 A 1.628 1.628 0 0 0 94.357 49.58 Q 95.409 49.185 97.4 47.5 Q 99.562 45.671 103.003 41.802 A 153.658 153.658 0 0 0 104.45 40.15 A 128.462 128.462 0 0 0 109.504 33.898 A 164.977 164.977 0 0 0 113.5 28.4 A 180.491 180.491 0 0 0 114.598 25.875 Q 115.334 24.147 116.15 22.15 Q 117.6 18.6 119.7 13.6 A 2.085 2.085 0 0 0 119.734 13.529 Q 119.881 13.2 120.45 11.8 A 204.627 204.627 0 0 1 121.103 10.213 Q 121.449 9.382 121.838 8.464 A 335.114 335.114 0 0 1 121.95 8.2 Q 122.534 6.825 123.001 5.687 A 131.533 131.533 0 0 0 123.4 4.7 Q 124 3.2 124 3.1 Q 124 1.657 122.373 1.516 A 4.311 4.311 0 0 0 122 1.5 L 118.6 2.2 Q 117.9 2.2 117.9 1.6 A 1.095 1.095 0 0 1 118.494 0.649 Q 119.375 0.1 121.561 0.016 A 21.769 21.769 0 0 1 122.4 0 A 14.992 14.992 0 0 1 124.832 0.18 Q 129.135 0.891 129.294 4.425 A 6.126 6.126 0 0 1 129.3 4.7 A 3.487 3.487 0 0 1 129.1 5.601 Q 128.186 8.482 123.1 18.9 Q 119.86 25.283 118.403 28.435 A 88.493 88.493 0 0 0 118.35 28.55 A 2784.511 2784.511 0 0 1 118.009 29.292 Q 117.049 31.374 116.847 31.803 A 5.928 5.928 0 0 1 116.8 31.9 A 92.727 92.727 0 0 0 114.238 38.102 Q 112.011 44.152 111.596 48.561 A 20.677 20.677 0 0 0 111.5 50.5 A 12.617 12.617 0 0 0 111.567 51.868 Q 111.717 53.227 112.196 53.911 A 1.515 1.515 0 0 0 113.5 54.6 L 116.5 53.5 L 116.8 53.6 A 0.823 0.823 0 0 1 116.633 54.076 Q 116.307 54.538 115.35 55 A 11.863 11.863 0 0 1 114.626 55.323 Q 113.688 55.7 113.1 55.7 A 5.558 5.558 0 0 1 113.03 55.7 Q 108.76 55.646 108.606 49.006 A 21.829 21.829 0 0 1 108.6 48.5 A 19.466 19.466 0 0 1 108.788 46.025 Q 109.375 41.536 111.8 33.2 Q 109.7 37.3 107.75 40.55 Q 105.8 43.8 103.6 46.7 Q 99.147 52.539 95.967 52.6 A 3.495 3.495 0 0 1 95.9 52.6 A 3.694 3.694 0 0 1 94.195 52.156 Q 93.014 51.546 91.8 50.1 A 13.176 13.176 0 0 1 90.833 48.734 Q 89.823 47.075 89.8 45.664 A 4.024 4.024 0 0 1 89.8 45.6 A 15.236 15.236 0 0 1 90.628 40.862 Q 92.155 36.207 96.5 30.5 A 47.193 47.193 0 0 1 99.403 26.994 Q 102.633 23.485 105.489 22.217 A 7.657 7.657 0 0 1 108.6 21.5 Q 110.1 21.5 111.7 22.4 A 5.95 5.95 0 0 1 112.401 22.765 Q 113.5 23.441 113.5 24.3 Q 113.5 25.1 112.6 25.1 Z M 154.9 21.7 L 155.9 21.7 Q 159.6 21.7 162.2 23.15 A 6.595 6.595 0 0 1 163.457 24.041 A 3.881 3.881 0 0 1 164.8 27 Q 164.8 27.987 164.077 28.089 A 1.265 1.265 0 0 1 163.9 28.1 A 0.432 0.432 0 0 1 163.781 28.086 Q 163.648 28.047 163.613 27.912 A 0.442 0.442 0 0 1 163.6 27.8 A 8.255 8.255 0 0 0 162.63 26.096 Q 161.123 24.1 158.7 24.1 Q 154.047 24.1 148.328 30.364 A 51.527 51.527 0 0 0 145.7 33.5 A 69.565 69.565 0 0 0 142.679 37.582 Q 138.4 43.872 138.4 47.7 A 5.406 5.406 0 0 0 138.434 48.34 Q 138.512 48.986 138.764 49.301 A 0.774 0.774 0 0 0 139.4 49.6 Q 143.636 49.6 156.642 31.615 A 311.568 311.568 0 0 0 158.3 29.3 Q 158.2 29.4 158.45 29.25 A 1.34 1.34 0 0 1 158.612 29.167 Q 158.698 29.13 158.777 29.114 A 0.606 0.606 0 0 1 158.9 29.1 A 0.993 0.993 0 0 1 159.171 29.148 Q 159.614 29.279 160.449 29.767 A 21.5 21.5 0 0 1 161 30.1 A 8.534 8.534 0 0 1 161.584 30.458 Q 162.6 31.143 162.6 31.7 L 162.2 32.35 A 9.8 9.8 0 0 0 161.945 32.794 Q 161.622 33.386 161.2 34.3 A 40.777 40.777 0 0 0 159.389 38.801 A 34.522 34.522 0 0 0 158.75 40.95 A 31.121 31.121 0 0 0 158.232 43.268 Q 158.025 44.413 157.947 45.429 A 15.347 15.347 0 0 0 157.9 46.6 A 16.219 16.219 0 0 0 157.988 48.368 Q 158.182 50.126 158.804 51.009 A 1.972 1.972 0 0 0 160.5 51.9 L 161.5 51.7 L 161.7 51.8 A 0.62 0.62 0 0 1 161.363 52.34 Q 160.782 52.7 159.2 52.7 Q 156.8 52.7 155.2 50.5 Q 153.95 48.584 153.742 45.625 A 17.446 17.446 0 0 1 153.7 44.4 A 24.872 24.872 0 0 1 154.015 40.564 Q 154.34 38.486 155 36.2 Q 154.9 36.5 154.3 37.3 Q 153.747 38.037 152.601 39.792 A 158.228 158.228 0 0 0 152.4 40.1 A 90.7 90.7 0 0 1 149.448 44.416 Q 143.319 52.8 139.5 52.8 A 4.314 4.314 0 0 1 136.97 51.965 A 6.622 6.622 0 0 1 135.85 50.95 A 6.407 6.407 0 0 1 134.316 47.667 A 8.887 8.887 0 0 1 134.2 46.2 Q 134.2 43.3 137.7 37.2 Q 141.2 31.2 146.3 26.4 Q 151.3 21.7 154.9 21.7 Z M 170.24 52.736 A 13.265 13.265 0 0 0 173.5 53.1 Q 178.998 53.1 186.783 43.385 A 94.222 94.222 0 0 0 190.9 37.8 Q 191.1 37.4 191.1 36.95 Q 191.1 36.591 190.717 36.519 A 1.176 1.176 0 0 0 190.5 36.5 A 0.116 0.116 0 0 0 190.45 36.523 Q 190.078 36.766 187.47 39.563 A 334.572 334.572 0 0 0 186.6 40.5 Q 184.7 42.5 183.1 44.15 Q 181.5 45.8 180.1 47.1 A 22.011 22.011 0 0 1 177.761 48.873 Q 176.466 49.716 175.241 50.19 A 8.41 8.41 0 0 1 172.2 50.8 A 4.336 4.336 0 0 1 171.783 50.781 Q 169.686 50.578 169.228 48.26 A 7.57 7.57 0 0 1 169.1 46.8 A 9.949 9.949 0 0 1 169.126 46.094 Q 169.404 42.186 172.7 36.6 Q 174.4 33.8 176.55 31.2 Q 178.7 28.6 181.2 26.6 A 34.188 34.188 0 0 1 181.947 26.024 Q 183.625 24.767 184.585 24.427 A 1.89 1.89 0 0 1 185.2 24.3 A 0.609 0.609 0 0 1 185.718 24.565 Q 185.913 24.831 185.973 25.367 A 4.805 4.805 0 0 1 186 25.9 A 5.546 5.546 0 0 1 185.979 26.375 Q 185.885 27.464 185.38 28.964 A 24.368 24.368 0 0 1 184.8 30.5 A 0.697 0.697 0 0 0 185.141 30.871 Q 185.392 31 185.8 31 A 4.169 4.169 0 0 0 185.988 30.996 Q 188.394 30.888 188.878 27.957 A 10.217 10.217 0 0 0 189 26.3 A 2.793 2.793 0 0 0 188.587 24.858 Q 188.058 23.965 186.85 23.15 A 11.472 11.472 0 0 0 186.473 22.907 Q 185.659 22.403 184.867 22.11 A 6.214 6.214 0 0 0 182.7 21.7 A 7.737 7.737 0 0 0 180.152 22.147 Q 175.726 23.682 171 30.5 A 61.002 61.002 0 0 0 169.972 32.04 Q 166.877 36.831 165.709 40.756 A 15.628 15.628 0 0 0 165 45.2 Q 165 51.403 170.24 52.736 Z M 91.9 28.2 L 89.4 27.8 Q 89.5 28.8 89.55 29.6 Q 89.6 30.4 89.6 31 A 27.359 27.359 0 0 1 87.704 41.252 A 25.898 25.898 0 0 1 85.4 45.7 A 17.201 17.201 0 0 1 82.57 49.023 A 11.187 11.187 0 0 1 74.9 52 Q 68.44 52 67.132 46.593 A 13.19 13.19 0 0 1 66.8 43.5 Q 66.8 40.1 68.35 36.25 A 23.595 23.595 0 0 1 69.85 33.159 Q 70.906 31.35 72.2 30 A 7.805 7.805 0 0 1 71.342 27.728 Q 71.13 26.752 71.104 25.625 A 13.859 13.859 0 0 1 71.1 25.3 A 6.785 6.785 0 0 1 72.536 21.144 A 9.575 9.575 0 0 1 73.5 20.05 A 8.104 8.104 0 0 1 79.373 17.7 A 10.482 10.482 0 0 1 79.4 17.7 Q 84.543 17.7 87.056 21.957 A 13.492 13.492 0 0 1 88.2 24.5 Q 91.636 25.159 92.56 26.03 A 0.926 0.926 0 0 1 92.9 26.7 Q 92.9 28.2 91.9 28.2 Z M 121.9 48 A 12.355 12.355 0 0 0 122.004 49.668 Q 122.528 53.5 125.7 53.5 Q 126.638 53.5 128.613 52.463 A 29.384 29.384 0 0 0 129.8 51.8 Q 132.7 50.1 132.7 49 A 0.589 0.589 0 0 0 132.683 48.852 Q 132.636 48.671 132.458 48.62 A 0.576 0.576 0 0 0 132.3 48.6 Q 131.9 48.9 131.45 49.3 A 14.576 14.576 0 0 1 131.375 49.367 Q 130.913 49.772 129.9 50.6 A 9.892 9.892 0 0 1 129.48 50.913 Q 128.775 51.41 128.211 51.593 A 1.985 1.985 0 0 1 127.6 51.7 Q 126.3 51.7 126.3 49.2 A 9.564 9.564 0 0 1 126.303 48.948 Q 126.332 47.851 126.607 46.319 A 36.624 36.624 0 0 1 126.95 44.65 A 35.611 35.611 0 0 1 126.957 44.62 Q 127.608 41.777 129.1 37.4 A 124.256 124.256 0 0 1 130.335 33.947 A 98.005 98.005 0 0 1 131.95 29.9 A 53.079 53.079 0 0 1 133.342 26.889 A 39.836 39.836 0 0 1 135 23.9 A 1.138 1.138 0 0 0 134.882 23.585 Q 134.408 22.731 132.4 22.55 A 13.387 13.387 0 0 0 131.2 22.5 Q 130 22.5 129.3 23.2 Q 129.066 23.435 128.679 24.157 A 17.904 17.904 0 0 0 128.45 24.6 A 14.735 14.735 0 0 0 128.32 24.867 Q 128.013 25.514 127.93 25.875 A 1.04 1.04 0 0 0 127.9 26.1 A 122.78 122.78 0 0 0 126.796 28.681 Q 123.594 36.413 122.486 42.295 A 31.019 31.019 0 0 0 121.9 48 Z M 74.8 50.8 A 5.842 5.842 0 0 0 78.167 49.664 Q 80.417 48.104 82.5 44.4 Q 85.833 38.383 86.08 32.88 A 19.576 19.576 0 0 0 86.1 32 A 12.311 12.311 0 0 0 85.994 30.331 Q 85.874 29.458 85.619 28.734 A 5.885 5.885 0 0 0 85.2 27.8 A 10.5 10.5 0 0 0 82.327 28.743 Q 79.855 29.936 77.11 32.491 A 34.075 34.075 0 0 0 77.1 32.5 A 6.185 6.185 0 0 0 77.545 32.786 Q 78.18 33.154 78.618 33.154 A 0.985 0.985 0 0 0 78.7 33.15 Q 79.3 33.1 79.4 33.1 A 0.72 0.72 0 0 1 79.598 33.125 Q 79.9 33.212 79.9 33.6 A 0.665 0.665 0 0 1 79.511 34.236 Q 79.222 34.384 78.717 34.399 A 3.941 3.941 0 0 1 78.6 34.4 A 4.198 4.198 0 0 1 77.618 34.276 Q 76.909 34.105 76.1 33.7 Q 70.8 39.9 70.8 45.4 A 10.743 10.743 0 0 0 70.959 47.338 Q 71.597 50.8 74.8 50.8 Z M 83 24 L 83.3 24 A 6.154 6.154 0 0 0 82.157 22.118 Q 80.959 20.804 79.03 20.557 A 7.34 7.34 0 0 0 78.1 20.5 Q 76.4 20.5 75.3 21.65 A 6.881 6.881 0 0 0 73.708 24.375 A 7.898 7.898 0 0 0 73.7 24.4 Q 73.253 25.831 73.206 27.022 A 7.016 7.016 0 0 0 73.2 27.3 Q 73.2 28.5 73.6 29.1 A 74.251 74.251 0 0 1 76.002 27.367 Q 80.888 24 83 24 Z M 140.4 8 L 139.9 10.9 Q 139.4 14 138.1 15.55 Q 136.8 17.1 135.3 17.1 A 6.613 6.613 0 0 1 133.703 16.917 A 4.811 4.811 0 0 1 131.7 15.9 A 24.564 24.564 0 0 0 133.41 14.61 Q 134.541 13.682 135.75 12.5 Q 137.9 10.4 140.2 7.5 A 0.144 0.144 0 0 1 140.328 7.58 Q 140.393 7.688 140.399 7.945 A 2.293 2.293 0 0 1 140.4 8 Z" vector-effect="non-scaling-stroke"/></g></svg>